<?xml version="1.0" encoding="utf-8"?>
<svg version="1.1" xmlns:xlink="http://www.w3.org/1999/xlink" width="54px" height="52px" xmlns="http://www.w3.org/2000/svg">
  <g transform="matrix(1 0 0 1 -437 -28 )">
    <path d="M 437 28  L 491 28  L 491 80  L 437 80  L 437 28  " fill-rule="nonzero" fill="#cccccc" stroke="none" />
    <path d="M 441 32  L 487 32  L 487 76  L 441 76  L 441 32  " fill-rule="nonzero" fill="#ffffff" stroke="none" />
    <path d="M 468.98 43.6  C 466.796 43.6  465.08 41.884  465.08 39.7  C 465.08 37.516  466.796 35.8  468.98 35.8  C 471.164 35.8  472.88 37.516  472.88 39.7  C 472.88 41.884  471.164 43.6  468.98 43.6  " fill-rule="nonzero" fill="#cccccc" stroke="none" />
    <path d="M 443 75  L 443 52.45  L 453.75 42.2  L 468.8 51.3111111111111  L 477.4 48.35  L 486 51.3111111111111  L 486 75  L 443 75  " fill-rule="nonzero" fill="#169bd5" stroke="none" />
  </g>
</svg>