<?xml version="1.0" encoding="utf-8"?>
<svg version="1.1" xmlns:xlink="http://www.w3.org/1999/xlink" width="453px" height="53px" xmlns="http://www.w3.org/2000/svg">
  <defs>
    <mask fill="white" id="clip25">
      <path d="M 0 53  L 0 0  L 37.6193771626298 0  L 72.1038062283737 0  L 144.207612456747 0  L 453 0  L 453 53  L 0 53  Z " fill-rule="evenodd" />
    </mask>
  </defs>
  <g transform="matrix(1 0 0 1 -680 -770 )">
    <path d="M 0 53  L 0 0  L 37.6193771626298 0  L 72.1038062283737 0  L 144.207612456747 0  L 453 0  L 453 53  L 0 53  Z " fill-rule="nonzero" fill="#ffffff" stroke="none" transform="matrix(1 0 0 1 680 770 )" />
    <path d="M 0 53  L 0 0  L 37.6193771626298 0  L 72.1038062283737 0  L 144.207612456747 0  L 453 0  L 453 53  L 0 53  Z " stroke-width="2" stroke="#797979" fill="none" transform="matrix(1 0 0 1 680 770 )" mask="url(#clip25)" />
  </g>
</svg>