<?xml version="1.0" encoding="utf-8"?>
<svg version="1.1" xmlns:xlink="http://www.w3.org/1999/xlink" width="39px" height="32px" xmlns="http://www.w3.org/2000/svg">
  <g transform="matrix(1 0 0 1 -38 -27 )">
    <path d="M 38 27  L 77 27  L 77 59  L 38 59  L 38 27  " fill-rule="nonzero" fill="#cccccc" stroke="none" />
    <path d="M 40 29  L 75 29  L 75 57  L 40 57  L 40 29  " fill-rule="nonzero" fill="#ffffff" stroke="none" />
    <path d="M 60.68 36.6  C 59.336 36.6  58.28 35.544  58.28 34.2  C 58.28 32.856  59.336 31.8  60.68 31.8  C 62.024 31.8  63.08 32.856  63.08 34.2  C 63.08 35.544  62.024 36.6  60.68 36.6  " fill-rule="nonzero" fill="#cccccc" stroke="none" />
    <path d="M 41 56  L 41 41.7  L 49.25 35.2  L 60.8 43.2  L 67.4 39.1  L 74 43.2  L 74 56  L 41 56  " fill-rule="nonzero" fill="#169bd5" stroke="none" />
  </g>
</svg>