<?xml version="1.0" encoding="utf-8"?>
<svg version="1.1" xmlns:xlink="http://www.w3.org/1999/xlink" width="41px" height="32px" xmlns="http://www.w3.org/2000/svg">
  <g transform="matrix(1 0 0 1 -38 -27 )">
    <path d="M 38 27  L 79 27  L 79 59  L 38 59  L 38 27  " fill-rule="nonzero" fill="#cccccc" stroke="none" />
    <path d="M 40 29  L 77 29  L 77 57  L 40 57  L 40 29  " fill-rule="nonzero" fill="#ffffff" stroke="none" />
    <path d="M 61.72 36.6  C 60.376 36.6  59.32 35.544  59.32 34.2  C 59.32 32.856  60.376 31.8  61.72 31.8  C 63.064 31.8  64.12 32.856  64.12 34.2  C 64.12 35.544  63.064 36.6  61.72 36.6  " fill-rule="nonzero" fill="#cccccc" stroke="none" />
    <path d="M 41 56  L 41 41.7  L 49.75 35.2  L 62 43.8243902439024  L 69 39.1  L 76 43.8243902439024  L 76 56  L 41 56  " fill-rule="nonzero" fill="#169bd5" stroke="none" />
  </g>
</svg>