<?xml version="1.0" encoding="utf-8"?>
<svg version="1.1" xmlns:xlink="http://www.w3.org/1999/xlink" width="158px" height="61px" xmlns="http://www.w3.org/2000/svg">
  <defs>
    <mask fill="white" id="clip27">
      <path d="M 0 61  L 0 0  L 13.121107266436 0  L 25.1487889273356 0  L 50.2975778546713 0  L 158 0  L 158 61  L 0 61  Z " fill-rule="evenodd" />
    </mask>
  </defs>
  <g transform="matrix(1 0 0 1 -231 -133 )">
    <path d="M 0 61  L 0 0  L 13.121107266436 0  L 25.1487889273356 0  L 50.2975778546713 0  L 158 0  L 158 61  L 0 61  Z " fill-rule="nonzero" fill="#ffffff" stroke="none" transform="matrix(1 0 0 1 231 133 )" />
    <path d="M 0 61  L 0 0  L 13.121107266436 0  L 25.1487889273356 0  L 50.2975778546713 0  L 158 0  L 158 61  L 0 61  Z " stroke-width="2" stroke="#797979" fill="none" transform="matrix(1 0 0 1 231 133 )" mask="url(#clip27)" />
  </g>
</svg>